<?xml version="1.0" encoding="UTF-8" standalone="no"?>
<!-- Created with Inkscape (http://www.inkscape.org/) -->

<svg
   width="181mm"
   height="181mm"
   viewBox="0 0 181 181"
   version="1.1"
   id="svg1"
   inkscape:version="1.3 (1:1.3+202307231459+0e150ed6c4)"
   sodipodi:docname="base_logo.svg"
   inkscape:export-filename="favicon-32x32.png"
   inkscape:export-xdpi="4.4906077"
   inkscape:export-ydpi="4.4906077"
   xmlns:inkscape="http://www.inkscape.org/namespaces/inkscape"
   xmlns:sodipodi="http://sodipodi.sourceforge.net/DTD/sodipodi-0.dtd"
   xmlns="http://www.w3.org/2000/svg"
   xmlns:svg="http://www.w3.org/2000/svg">
  <sodipodi:namedview
     id="namedview1"
     pagecolor="#ffffff"
     bordercolor="#000000"
     borderopacity="0.25"
     inkscape:showpageshadow="2"
     inkscape:pageopacity="0.0"
     inkscape:pagecheckerboard="0"
     inkscape:deskcolor="#d1d1d1"
     inkscape:document-units="mm"
     inkscape:zoom="0.54236816"
     inkscape:cx="350.31555"
     inkscape:cy="187.14225"
     inkscape:window-width="1920"
     inkscape:window-height="1043"
     inkscape:window-x="1920"
     inkscape:window-y="0"
     inkscape:window-maximized="1"
     inkscape:current-layer="layer1" />
  <defs
     id="defs1">
    <clipPath
       clipPathUnits="userSpaceOnUse"
       id="clipPath1215">
      <path
         d="M 130.73749,90.961975 H 723.71015 V 648.63868 H 130.73749 Z"
         clip-rule="evenodd"
         id="path1213" />
    </clipPath>
  </defs>
  <g
     inkscape:label="Layer 1"
     inkscape:groupmode="layer"
     id="layer1"
     transform="translate(-27.278393,-43.530642)">
    <path
       d="M 27.278393,43.530642 H 208.27839 V 224.53064 H 27.278393 Z"
       style="fill:#20344b;fill-opacity:1;fill-rule:nonzero;stroke:none;stroke-width:2.2219"
       id="path1219"
       clip-path="none" />
    <g
       id="g30">
      <path
         style="display:inline;fill:#ffffff;stroke-width:0.298281"
         d="m 139.1645,145.1658 c -0.78954,-0.82059 -1.43534,-1.77424 -1.43534,-2.11921 0,-0.38801 1.0752,-1.73909 2.81335,-3.53682 1.54747,-1.60025 2.89581,-3.23866 2.99642,-3.64096 0.10197,-0.40191 0.14368,-1.53207 0.0924,-2.51053 -0.11642,-2.26652 -0.50468,-2.35783 -3.70545,-0.87091 -1.28997,0.59927 -3.48498,1.56022 -4.878,2.13547 -1.3931,0.57525 -3.39432,1.45395 -4.44715,1.95251 -1.39942,0.66279 -2.04085,0.8273 -2.384,0.61195 -0.46518,-0.2922 -0.71705,-1.72923 -1.50683,-8.59399 -0.64751,-5.62651 -0.97047,-7.36132 -1.40084,-7.52679 -0.57749,-0.2221 -2.96869,1.04485 -3.76726,1.99612 -0.36957,0.44042 -1.08592,2.35013 -1.66811,4.44729 -1.24978,4.50258 -1.45648,4.70834 -4.0515,4.0313 -0.97992,-0.25526 -1.94915,-0.60334 -2.15391,-0.77256 -0.55464,-0.45811 -0.45183,-2.20436 0.26221,-4.47347 0.58509,-1.85779 0.59845,-2.07271 0.16558,-2.73203 -0.25689,-0.39387 -0.77782,-0.7876 -1.15644,-0.87553 -2.32632,-0.5402 -4.61419,-1.22821 -4.93469,-1.48401 -0.6453,-0.51484 -0.23819,-3.80622 0.61009,-4.92687 0.40268,-0.53249 1.86647,-0.46238 4.56675,0.21943 3.075,0.77634 5.45337,0.77759 6.96748,0.002 1.22485,-0.62621 1.88576,-1.46915 1.54166,-1.96599 -0.17036,-0.24576 -5.72954,-4.49447 -8.56089,-6.54286 -2.24318,-1.62274 -3.70968,-2.99394 -3.70968,-3.46836 0,-0.51806 2.35164,-2.45253 8.61735,-7.088743 4.57045,-3.381836 4.6599,-3.605786 1.96304,-4.928887 -1.64645,-0.80778 -3.43804,-1.006167 -4.68132,-0.51804 -1.55476,0.61009 -5.24761,1.303091 -5.9725,1.120751 -0.63171,-0.15908 -0.86687,-0.499441 -1.24637,-1.809107 -0.58166,-2.00387 -0.59288,-2.9865 -0.0374,-3.44626 0.23605,-0.19535 1.4193,-0.598211 2.63068,-0.894331 3.67731,-0.898846 3.91293,-1.199246 3.17181,-4.048006 -0.7689,-2.955927 -0.82989,-3.574007 -0.41657,-4.216517 0.22378,-0.3484 0.71732,-0.7086 1.09615,-0.80034 0.37864,-0.0915 1.16352,-0.29007 1.74444,-0.44099 1.768,-0.45864 2.22708,-0.0791 3.05281,2.52621 0.40694,1.283856 0.89875,3.023747 1.09304,3.866467 0.39095,1.69622 1.23471,2.673376 3.17246,3.673717 2.20135,1.13658 2.0102,1.69738 3.4028,-9.983174 0.33273,-2.791759 0.66428,-5.243874 0.7365,-5.44917 0.20187,-0.571444 1.21607,-0.447392 2.76767,0.338762 0.77273,0.391732 2.94732,1.343953 4.83183,2.1163 1.88469,0.77231 3.69506,1.570027 4.02279,1.772587 1.19319,0.737721 3.2051,1.386551 3.75611,1.211401 0.48011,-0.15251 0.56435,-0.47898 0.56435,-2.183106 0,-1.918676 -0.32954,-2.870897 -1.30987,-3.787367 -2.11061,-1.972622 -4.64949,-4.973554 -4.64949,-5.495937 0,-0.92063 2.58601,-3.60205 3.47384,-3.60205 0.46036,0 1.31179,0.58768 2.41748,1.6685 1.97976,1.93512 2.73062,2.511712 3.2712,2.511712 0.21416,0 1.28118,-0.940572 2.37173,-2.090112 2.49364,-2.62853 3.01809,-2.693 4.96265,-0.60997 0.76837,0.82308 1.38168,1.76877 1.38168,2.13028 0,0.416358 -0.95788,1.629652 -2.66189,3.371885 -1.46407,1.496908 -2.80486,3.099893 -2.97967,3.562213 -0.48279,1.277286 -0.4027,3.942482 0.13139,4.387402 0.36477,0.30344 0.71827,0.27293 1.86232,-0.16001 0.77666,-0.29381 1.47918,-0.621601 1.5611,-0.728051 0.0828,-0.10645 0.61835,-0.37622 1.19198,-0.59896 1.8672,-0.725682 6.97134,-2.93201 8.25425,-3.568107 1.39744,-0.692769 2.33214,-0.791567 2.64804,-0.279362 0.1143,0.187863 0.32046,1.295974 0.45557,2.463313 0.13405,1.167296 0.38827,3.331637 0.56213,4.809617 0.17517,1.47802 0.42776,3.860367 0.56344,5.294077 0.36157,3.820357 0.73942,4.059417 3.61478,2.286616 1.63791,-1.009806 1.78359,-1.293656 2.82961,-5.519377 0.95788,-3.867826 1.33377,-4.422116 2.81484,-4.147626 3.55552,0.65907 3.92317,1.12172 3.2958,4.148366 -0.68648,3.311121 -0.70036,3.879851 -0.10679,4.415281 0.30069,0.27187 1.61557,0.774066 2.92229,1.116516 3.15521,0.827011 3.35683,1.048461 2.90773,3.194961 -0.44756,2.137136 -1.06486,3.095347 -1.99395,3.095347 -0.39573,0 -1.83389,-0.28684 -3.19631,-0.637391 -3.90102,-1.00361 -4.98574,-1.02928 -6.70077,-0.15894 -0.81141,0.412081 -1.66342,0.976361 -1.89345,1.253941 -0.54422,0.65693 -0.32366,0.84997 8.20275,7.175019 3.41466,2.53309 4.0228,3.09902 4.0228,3.74372 0,0.56029 -0.88751,1.28 -9.16856,7.43387 -1.65739,1.23173 -3.09057,2.42443 -3.1849,2.65048 -0.23606,0.56129 0.31723,1.15912 1.74198,1.88748 1.5555,0.79522 4.03061,0.78457 7.18487,-0.0321 3.37557,-0.87263 3.85627,-0.83319 4.42309,0.36393 0.66066,1.39474 0.91475,3.29755 0.53566,4.00745 -0.23125,0.43028 -1.04072,0.77417 -2.90113,1.22975 -3.25422,0.79693 -3.7782,1.38238 -3.13796,3.50759 0.14365,0.4763 0.42512,1.57446 0.62542,2.44068 0.50361,2.17609 0.032,2.88178 -2.24318,3.35502 -2.31853,0.4822 -3.02146,0.24886 -3.38892,-1.12598 -1.91123,-7.15456 -1.94697,-7.22969 -4.0009,-8.40717 -2.64873,-1.51849 -2.77325,-1.40839 -3.18687,2.81161 -0.14579,1.47803 -0.41554,3.96377 -0.6016,5.52385 -0.18746,1.56006 -0.42832,3.59252 -0.53857,4.51649 -0.33807,2.8312 -0.69375,2.98194 -3.7617,1.59521 -0.81942,-0.37032 -2.83057,-1.24041 -4.46949,-1.93339 -1.63887,-0.69298 -3.81223,-1.64789 -4.82985,-2.12199 -2.94126,-1.37057 -3.37653,-1.17866 -3.35098,1.47648 0.0214,1.99184 0.41441,2.66781 3.33881,5.70825 3.07353,3.19564 3.17202,3.5945 1.37266,5.55055 -1.93484,2.10352 -2.29037,2.07039 -4.88998,-0.45544 -2.71049,-2.63356 -3.0203,-2.62457 -5.70986,0.16537 -1.18297,1.22741 -2.09068,1.92109 -2.51309,1.92109 -0.40269,0 -1.22082,-0.58221 -2.09597,-1.49193 z m -0.69227,-18.55459 c 2.29543,-1.00802 4.40823,-2.03663 4.69516,-2.28569 0.28678,-0.24886 0.52124,-0.82589 0.52124,-1.28189 0,-2.35596 5.35177,-2.90108 5.83828,-0.59467 0.38508,1.82485 0.55882,2.00564 2.87755,2.99742 0.3685,0.15786 2.04568,0.89672 3.72642,1.6422 3.34393,1.48317 4.08431,1.62029 4.49796,0.833 0.15061,-0.28741 0.51431,-2.77591 0.80774,-5.53005 l 0.53354,-5.00745 -0.94665,-0.97844 c -0.5202,-0.53805 -0.94609,-1.27863 -0.94609,-1.64564 0,-1.14816 0.78784,-2.6217 1.78047,-3.32994 0.8763,-0.62535 1.04823,-0.64941 2.11661,-0.29594 0.74753,0.24726 1.35979,0.28792 1.71381,0.11345 1.01011,-0.49663 8.07608,-5.93784 8.23683,-6.34279 0.26759,-0.6749 -0.18958,-1.14595 -3.72134,-3.82436 -4.93028,-3.740193 -4.9016,-3.725413 -6.18425,-3.188383 -0.88191,0.369261 -1.18057,0.378911 -1.78119,0.0567 -1.02514,-0.54978 -1.81148,-1.770976 -2.03251,-3.157436 -0.17038,-1.07885 -0.0971,-1.28118 0.78657,-2.10839 l 0.97677,-0.914971 -0.53882,-5.175507 c -0.2964,-2.846536 -0.6716,-5.343497 -0.83327,-5.548707 -0.48601,-0.615876 -1.20246,-0.443666 -4.73921,1.137871 -1.85848,0.83112 -3.848,1.71933 -4.42188,1.97374 -1.30985,0.58113 -1.78765,1.17957 -1.78765,2.238406 0,1.557741 -2.54957,2.477651 -4.5476,1.640961 -1.05144,-0.4399 -1.22943,-0.734191 -1.47499,-2.437637 -0.0901,-0.61554 -1.20118,-1.25143 -6.18885,-3.536541 -1.37803,-0.63128 -2.93038,-1.216966 -3.44974,-1.301476 -0.85277,-0.1386 -0.97749,-0.0594 -1.28312,0.819186 -0.18745,0.535181 -0.33915,1.389451 -0.34022,1.898661 0,0.50896 -0.1239,1.39614 -0.27077,1.97088 -0.14847,0.57475 -0.35462,2.213917 -0.45929,3.642617 l -0.18962,2.597486 0.90842,0.81094 c 0.67866,0.606071 0.90819,1.069781 0.90819,1.836101 0,1.51874 -0.79417,2.940746 -1.94869,3.489766 -0.88602,0.42118 -1.13089,0.42814 -2.0143,0.0583 -1.1859,-0.49665 -1.13241,-0.5207 -4.63344,2.09043 -4.83933,3.609483 -5.08785,3.826373 -5.099,4.452943 -0.0213,0.64932 0.9349,1.65389 2.67032,2.83319 0.57365,0.39013 2.04666,1.49692 3.27338,2.46033 2.30859,1.81261 2.27527,1.80352 4.5209,1.24517 0.63634,-0.1584 1.00737,0 1.89147,0.81325 0.89314,0.82019 1.1302,1.2793 1.2608,2.4411 0.14846,1.31817 0.0876,1.49847 -0.7742,2.28699 -1.02003,0.93388 -1.03199,1.01767 -0.63416,4.62191 0.6974,6.32044 0.97533,7.31532 2.04278,7.31532 0.26542,0 2.3611,-0.82479 4.65674,-1.83278 z"
         id="path896-8-3"
         inkscape:connector-curvature="0"
         inkscape:export-xdpi="999.31415"
         inkscape:export-ydpi="999.31415"
         sodipodi:nodetypes="csccccccccccccccccccccccsscccccccccccccccccccscsscscssccccccccccccccccccsccccsccccccsccccccccccccccscsccccscccccccsccccccccccccccsccccccccccscccccccccccscc"
         clip-path="none" />
      <text
         style="font-variant:normal;font-weight:bold;font-size:21.6083px;font-family:LeagueSpartan;-inkscape-font-specification:LeagueSpartan-Bold;writing-mode:lr-tb;fill:#ffffff;fill-opacity:1;fill-rule:nonzero;stroke:none;stroke-width:0.705002"
         id="text1249"
         transform="scale(1.000054,0.999946)"
         y="175.83415"
         x="108.03964"><tspan
           x="108.03964 129.2762 151.18242 169.02751"
           y="175.83415"
           sodipodi:role="line"
           id="tspan1247"
           style="stroke-width:0.705002">CATA</tspan></text>
      <text
         style="font-variant:normal;font-weight:bold;font-size:21.6083px;font-family:LeagueSpartan;-inkscape-font-specification:LeagueSpartan-Bold;writing-mode:lr-tb;fill:#ffffff;fill-opacity:1;fill-rule:nonzero;stroke:none;stroke-width:0.705002"
         id="text1253"
         transform="scale(1.000054,0.99994598)"
         y="205.31126"
         x="48.822651"><tspan
           x="48.822651 70.059204 93.97438 117.88955 135.065 146.6888 169.50229"
           y="205.31126"
           sodipodi:role="line"
           id="tspan1251"
           style="stroke-width:0.705002">COOLING</tspan></text>
    </g>
  </g>
</svg>
